<?xml version="1.0" encoding="UTF-8" standalone="no"?>
<svg viewBox="0 0 459 459" fill="none" version="1.1" xmlns="http://www.w3.org/2000/svg">
  <g id="g4" fill="#3bc4ff" transform="translate(76.240639,76.241383)">
    <path fill-rule="evenodd" clip-rule="evenodd" d="M 48.6063,110.778 C 41.1291,100.977 29.4444,89.2134 11.3066,71.0756 4.26267,64.0317 0.740723,60.5098 0.740723,56.1332 c 0,-4.3765 3.521957,-7.8984 10.565877,-14.9423 l 7.4712,-7.4712 c 7.0439,-7.0439 10.5658,-10.5659 14.9424,-10.5659 4.3765,0 7.8984,3.522 14.9423,10.5659 0.4113,0.4112 0.8212,0.8211 1.2297,1.2295 16.5587,16.5569 30.826,30.8226 40.7146,43.7831 10.5972,13.8899 18.6222,29.3387 18.6222,48.3777 0,19.038 -8.025,34.487 -18.6222,48.377 -9.8886,12.96 -24.1559,27.226 -40.7147,43.783 -0.4085,0.408 -0.8183,0.818 -1.2296,1.229 -7.0439,7.044 -10.5658,10.566 -14.9423,10.566 -4.3766,0 -7.8985,-3.522 -14.9424,-10.566 l -7.4712,-7.471 C 4.26267,205.984 0.740724,202.462 0.740724,198.086 c 0,-4.377 3.521946,-7.899 10.565876,-14.943 18.1378,-18.137 29.8225,-29.901 37.2997,-39.701 7.0122,-9.191 7.7929,-13.489 7.7929,-16.332 0,-2.844 -0.7807,-7.142 -7.7929,-16.332 z" id="path1" />
    <path fill-rule="evenodd" clip-rule="evenodd" d="m 195.74,48.6058 c 9.801,-7.4772 21.565,-19.1619 39.702,-37.2997 7.044,-7.0439 10.566,-10.565855 14.943,-10.565855 4.376,0 7.898,3.521955 14.942,10.565855 l 7.471,7.4712 c 7.044,7.0439 10.566,10.5659 10.566,14.9424 0,4.3765 -3.522,7.8985 -10.566,14.9424 -0.411,0.4112 -0.821,0.8211 -1.229,1.2296 -16.557,16.5587 -30.823,30.826 -43.783,40.7146 -13.89,10.5977 -29.339,18.6217 -48.378,18.6217 -19.039,0 -34.487,-8.024 -48.377,-18.6217 C 118.071,80.7177 103.805,66.4504 87.248,49.8916 86.8396,49.4831 86.4297,49.0733 86.0185,48.662 78.9746,41.6181 75.4527,38.0962 75.4527,33.7197 c 0,-4.3766 3.5219,-7.8985 10.5658,-14.9424 l 7.4712,-7.4712 C 100.534,4.26218 104.056,0.740234 108.432,0.740234 c 4.377,1e-6 7.899,3.521956 14.942,10.565866 18.138,18.1378 29.902,29.8225 39.702,37.2997 9.191,7.0122 13.489,7.7929 16.332,7.7929 2.844,0 7.142,-0.7807 16.332,-7.7929 z" id="path2" />
    <path fill-rule="evenodd" clip-rule="evenodd" d="m 257.912,195.74 c 7.477,9.8 19.162,21.564 37.3,39.702 7.044,7.044 10.566,10.566 10.566,14.942 0,4.377 -3.522,7.899 -10.566,14.943 l -7.471,7.471 c -7.044,7.044 -10.566,10.566 -14.943,10.566 -4.376,0 -7.898,-3.522 -14.942,-10.566 -0.411,-0.411 -0.821,-0.821 -1.23,-1.23 -16.558,-16.557 -30.826,-30.822 -40.714,-43.783 -10.598,-13.89 -18.622,-29.338 -18.622,-48.377 0,-19.039 8.024,-34.487 18.622,-48.377 9.888,-12.961 24.156,-27.227 40.714,-43.7835 0.409,-0.4084 0.819,-0.8182 1.23,-1.2295 7.044,-7.0439 10.566,-10.5658 14.942,-10.5658 4.377,0 7.899,3.5219 14.943,10.5658 l 7.471,7.4712 c 7.044,7.0438 10.566,10.5658 10.566,14.9428 0,4.376 -3.522,7.898 -10.566,14.942 -18.138,18.138 -29.823,29.902 -37.3,39.702 -7.012,9.191 -7.793,13.488 -7.793,16.332 0,2.844 0.781,7.141 7.793,16.332 z" id="path3" />
    <path fill-rule="evenodd" clip-rule="evenodd" d="m 110.778,257.912 c -9.8,7.477 -21.5641,19.162 -39.7019,37.299 -7.0439,7.044 -10.5658,10.566 -14.9424,10.566 -4.3765,0 -7.8984,-3.522 -14.9424,-10.566 l -7.4711,-7.471 c -7.044,-7.044 -10.5659,-10.566 -10.5659,-14.942 0,-4.377 3.522,-7.899 10.5659,-14.943 0.4112,-0.411 0.8211,-0.821 1.2295,-1.229 16.5569,-16.559 30.8225,-30.826 43.7831,-40.715 13.8899,-10.597 29.3382,-18.622 48.3772,-18.622 19.039,0 34.487,8.025 48.377,18.622 12.961,9.889 27.227,24.156 43.783,40.715 0.409,0.408 0.819,0.818 1.23,1.229 7.044,7.044 10.566,10.566 10.566,14.943 0,4.376 -3.522,7.898 -10.566,14.942 l -7.471,7.471 c -7.044,7.044 -10.566,10.566 -14.943,10.566 -4.376,0 -7.898,-3.522 -14.942,-10.566 -18.138,-18.137 -29.902,-29.822 -39.702,-37.299 -9.191,-7.013 -13.488,-7.793 -16.332,-7.793 -2.844,0 -7.141,0.78 -16.332,7.793 z" id="path4" />
  </g>
</svg>
