<?xml version="1.0" encoding="UTF-8"?>
<svg xmlns="http://www.w3.org/2000/svg" viewBox="0 0 128 128" version="1.1">
    <g id="logo" fill="#3bc4ff">
        <path d="M 34.816406 52.152344 C 32.730469 49.421875 29.472656 46.140625 24.414062 41.082031 C 22.449219 39.117188 21.46875 38.136719 21.46875 36.914062 C 21.46875 35.695312 22.449219 34.710938 24.414062 32.746094 L 26.496094 30.664062 C 28.460938 28.699219 29.445312 27.71875 30.664062 27.71875 C 31.886719 27.71875 32.867188 28.699219 34.832031 30.664062 C 34.945312 30.777344 35.058594 30.894531 35.175781 31.007812 C 39.792969 35.625 43.769531 39.601562 46.527344 43.21875 C 49.484375 47.089844 51.722656 51.398438 51.722656 56.707031 C 51.722656 62.015625 49.484375 66.324219 46.527344 70.199219 C 43.769531 73.8125 39.792969 77.792969 35.175781 82.410156 C 35.058594 82.523438 34.945312 82.636719 34.832031 82.75 C 32.867188 84.714844 31.886719 85.699219 30.664062 85.699219 C 29.445312 85.699219 28.460938 84.714844 26.496094 82.75 L 24.414062 80.667969 C 22.449219 78.703125 21.46875 77.722656 21.46875 76.5 C 21.46875 75.28125 22.449219 74.296875 24.414062 72.332031 C 29.472656 67.277344 32.730469 63.996094 34.816406 61.261719 C 36.769531 58.699219 36.988281 57.5 36.988281 56.707031 C 36.988281 55.914062 36.769531 54.714844 34.816406 52.152344 Z M 34.816406 52.152344 "/>
        <path d="M 75.847656 34.816406 C 78.578125 32.730469 81.859375 29.472656 86.917969 24.414062 C 88.882812 22.449219 89.863281 21.46875 91.085938 21.46875 C 92.304688 21.46875 93.289062 22.449219 95.253906 24.414062 L 97.335938 26.496094 C 99.300781 28.460938 100.28125 29.445312 100.28125 30.664062 C 100.28125 31.886719 99.300781 32.867188 97.335938 34.832031 C 97.222656 34.945312 97.105469 35.058594 96.992188 35.175781 C 92.375 39.792969 88.398438 43.769531 84.78125 46.527344 C 80.910156 49.484375 76.601562 51.722656 71.292969 51.722656 C 65.984375 51.722656 61.675781 49.484375 57.800781 46.527344 C 54.1875 43.769531 50.207031 39.792969 45.589844 35.175781 C 45.476562 35.058594 45.363281 34.945312 45.25 34.832031 C 43.285156 32.867188 42.300781 31.886719 42.300781 30.664062 C 42.300781 29.445312 43.285156 28.460938 45.25 26.496094 L 47.332031 24.414062 C 49.296875 22.449219 50.277344 21.46875 51.5 21.46875 C 52.71875 21.46875 53.703125 22.449219 55.664062 24.414062 C 60.722656 29.472656 64.003906 32.730469 66.738281 34.816406 C 69.300781 36.769531 70.5 36.988281 71.292969 36.988281 C 72.085938 36.988281 73.285156 36.769531 75.847656 34.816406 Z M 75.847656 34.816406 "/>
        <path d="M 93.183594 75.847656 C 95.269531 78.578125 98.527344 81.859375 103.585938 86.917969 C 105.550781 88.882812 106.53125 89.863281 106.53125 91.085938 C 106.53125 92.304688 105.550781 93.289062 103.585938 95.253906 L 101.503906 97.335938 C 99.539062 99.300781 98.554688 100.28125 97.335938 100.28125 C 96.113281 100.28125 95.132812 99.300781 93.167969 97.335938 C 93.054688 97.222656 92.941406 97.105469 92.824219 96.992188 C 88.207031 92.375 84.230469 88.398438 81.472656 84.78125 C 78.515625 80.910156 76.277344 76.601562 76.277344 71.292969 C 76.277344 65.984375 78.515625 61.675781 81.472656 57.800781 C 84.230469 54.1875 88.207031 50.207031 92.824219 45.589844 C 92.941406 45.476562 93.054688 45.363281 93.167969 45.25 C 95.132812 43.285156 96.113281 42.300781 97.335938 42.300781 C 98.554688 42.300781 99.539062 43.285156 101.503906 45.25 L 103.585938 47.332031 C 105.550781 49.296875 106.53125 50.277344 106.53125 51.5 C 106.53125 52.71875 105.550781 53.703125 103.585938 55.667969 C 98.527344 60.722656 95.269531 64.003906 93.183594 66.738281 C 91.230469 69.300781 91.011719 70.5 91.011719 71.292969 C 91.011719 72.085938 91.230469 73.285156 93.183594 75.847656 Z M 93.183594 75.847656 "/>
        <path d="M 52.152344 93.183594 C 49.421875 95.269531 46.140625 98.527344 41.082031 103.585938 C 39.117188 105.550781 38.136719 106.53125 36.914062 106.53125 C 35.695312 106.53125 34.710938 105.550781 32.746094 103.585938 L 30.664062 101.503906 C 28.699219 99.539062 27.71875 98.554688 27.71875 97.335938 C 27.71875 96.113281 28.699219 95.132812 30.664062 93.167969 C 30.777344 93.054688 30.894531 92.941406 31.007812 92.824219 C 35.625 88.207031 39.601562 84.230469 43.21875 81.472656 C 47.089844 78.515625 51.398438 76.277344 56.707031 76.277344 C 62.015625 76.277344 66.324219 78.515625 70.199219 81.472656 C 73.8125 84.230469 77.792969 88.207031 82.40625 92.824219 C 82.523438 92.941406 82.636719 93.054688 82.75 93.167969 C 84.714844 95.132812 85.699219 96.113281 85.699219 97.335938 C 85.699219 98.554688 84.714844 99.539062 82.75 101.503906 L 80.667969 103.585938 C 78.703125 105.550781 77.722656 106.53125 76.5 106.53125 C 75.28125 106.53125 74.296875 105.550781 72.332031 103.585938 C 67.277344 98.527344 63.996094 95.269531 61.261719 93.183594 C 58.699219 91.230469 57.5 91.011719 56.707031 91.011719 C 55.914062 91.011719 54.714844 91.230469 52.152344 93.183594 Z M 52.152344 93.183594 "/>
    </g>
</svg>
