<?xml version="1.0" encoding="UTF-8" standalone="no"?>
<svg viewBox="0 0 540 540" version="1.1" xmlns="http://www.w3.org/2000/svg">
    <g id="Logo" fill="white">
        <path id="P" d="M382.128,174.17l-10.114,10.114l-68.124,-68.124l10.114,-10.114l68.124,68.124Zm-33.47,-126.031c-1.851,-2.855 -1.526,-6.714 0.976,-9.216c2.876,-2.876 7.546,-2.876 10.422,-0c2.876,2.876 2.876,7.546 0,10.422c-1.884,1.884 -4.538,2.533 -6.953,1.949c-18.665,62.139 -15.789,59.11 48.636,30.843c-1.687,-3.471 -1.091,-7.776 1.79,-10.657c3.633,-3.633 9.532,-3.633 13.165,0c3.633,3.633 3.633,9.532 0,13.165c-2.881,2.881 -7.186,3.478 -10.657,1.79c-28.266,64.425 -31.296,67.301 30.843,48.636c-0.584,-2.415 0.066,-5.069 1.95,-6.953c2.876,-2.876 7.545,-2.876 10.421,0c2.876,2.876 2.876,7.546 0,10.422c-2.502,2.502 -6.361,2.827 -9.216,0.976c-11.754,8.661 -45.154,28.031 -55.396,32.143l-68.124,-68.123c4.113,-10.243 23.482,-43.643 32.143,-55.397Zm15.829,60.752c-1.549,-1.549 -4.063,-1.549 -5.612,-0c-1.549,1.548 -1.549,4.063 0,5.611c1.549,1.549 4.063,1.549 5.612,0c1.548,-1.548 1.548,-4.063 -0,-5.611Zm14.797,14.796c-1.549,-1.548 -4.063,-1.548 -5.612,0c-1.549,1.549 -1.549,4.063 -0,5.612c1.549,1.549 4.063,1.549 5.612,0c1.548,-1.549 1.548,-4.063 -0,-5.612Zm2.738,-17.535c-1.549,-1.548 -4.063,-1.548 -5.612,0c-1.548,1.549 -1.548,4.063 0,5.612c1.549,1.549 4.063,1.549 5.612,0c1.548,-1.549 1.548,-4.063 -0,-5.612Zm-13.363,-29.563l-6.397,18.736c-12.902,4.612 -17.592,0.848 -13.784,-15.078l17.012,-6.744c-0.289,-0.665 -0.458,-1.395 -0.479,-2.164c-0.088,-3.217 2.452,-5.899 5.669,-5.987c3.217,-0.087 5.899,2.453 5.987,5.67c0.087,3.216 -2.453,5.899 -5.67,5.986c-0.826,0.023 -1.617,-0.128 -2.338,-0.419Zm42.927,42.926c-0.292,-0.721 -0.443,-1.512 -0.42,-2.338c0.087,-3.217 2.77,-5.757 5.987,-5.67c3.216,0.088 5.757,2.771 5.669,5.987c-0.088,3.217 -2.77,5.757 -5.987,5.67c-0.769,-0.021 -1.499,-0.191 -2.164,-0.48l-6.744,17.013c-15.925,3.807 -19.69,-0.883 -15.078,-13.785l18.737,-6.397Z"/>
        <path id="Crown" d="M73.497,518.328l0,-392.489c30.945,-17.918 66.867,-28.176 105.167,-28.176c38.299,-0 74.221,10.258 105.166,28.176l0,76.99l76.991,0c17.917,30.945 28.176,66.867 28.176,105.167c-0,38.299 -10.259,74.221 -28.176,105.166l-182.157,0l-0,105.166l-105.167,0Zm105.167,-313.335l-0,206.005c56.848,0 103.002,-46.154 103.002,-103.002c0,-56.849 -46.154,-103.003 -103.002,-103.003Z"/>
    </g>
</svg>