<?xml version="1.0" encoding="UTF-8"?>
<svg xmlns="http://www.w3.org/2000/svg" viewBox="0 0 128 128" version="1.1">
    <g id="logo" fill="white">
        <path d="M 90.578125 41.285156 L 88.179688 43.683594 L 72.03125 27.535156 L 74.429688 25.136719 Z M 82.644531 11.410156 C 82.207031 10.734375 82.28125 9.820312 82.875 9.226562 C 83.558594 8.542969 84.664062 8.542969 85.347656 9.226562 C 86.027344 9.90625 86.027344 11.015625 85.347656 11.695312 C 84.898438 12.144531 84.269531 12.296875 83.699219 12.160156 C 79.273438 26.886719 79.957031 26.167969 95.226562 19.46875 C 94.828125 18.648438 94.96875 17.625 95.652344 16.945312 C 96.511719 16.082031 97.910156 16.082031 98.773438 16.945312 C 99.632812 17.804688 99.632812 19.203125 98.773438 20.0625 C 98.089844 20.746094 97.070312 20.886719 96.246094 20.488281 C 89.546875 35.757812 88.828125 36.441406 103.558594 32.015625 C 103.417969 31.445312 103.574219 30.816406 104.019531 30.367188 C 104.699219 29.6875 105.808594 29.6875 106.488281 30.367188 C 107.171875 31.050781 107.171875 32.15625 106.488281 32.839844 C 105.894531 33.433594 104.980469 33.507812 104.304688 33.070312 C 101.519531 35.125 93.601562 39.714844 91.171875 40.691406 L 75.027344 24.542969 C 76 22.113281 80.59375 14.195312 82.644531 11.410156 Z M 86.398438 25.8125 C 86.03125 25.445312 85.433594 25.445312 85.066406 25.8125 C 84.699219 26.179688 84.699219 26.773438 85.066406 27.140625 C 85.433594 27.507812 86.03125 27.507812 86.398438 27.140625 C 86.765625 26.773438 86.765625 26.179688 86.398438 25.8125 Z M 89.90625 29.320312 C 89.539062 28.953125 88.941406 28.953125 88.574219 29.320312 C 88.207031 29.6875 88.207031 30.28125 88.574219 30.648438 C 88.941406 31.015625 89.539062 31.015625 89.90625 30.648438 C 90.269531 30.28125 90.269531 29.6875 89.90625 29.320312 Z M 90.554688 25.160156 C 90.1875 24.796875 89.589844 24.796875 89.222656 25.160156 C 88.855469 25.527344 88.855469 26.125 89.222656 26.492188 C 89.589844 26.859375 90.1875 26.859375 90.554688 26.492188 C 90.921875 26.125 90.921875 25.527344 90.554688 25.160156 Z M 87.386719 18.15625 L 85.871094 22.59375 C 82.8125 23.6875 81.699219 22.796875 82.601562 19.023438 L 86.632812 17.421875 C 86.566406 17.265625 86.527344 17.09375 86.519531 16.910156 C 86.5 16.148438 87.101562 15.511719 87.863281 15.492188 C 88.628906 15.46875 89.261719 16.074219 89.285156 16.835938 C 89.304688 17.597656 88.703125 18.234375 87.941406 18.253906 C 87.746094 18.257812 87.558594 18.222656 87.386719 18.15625 Z M 97.5625 28.328125 C 97.492188 28.160156 97.457031 27.972656 97.460938 27.773438 C 97.480469 27.011719 98.117188 26.410156 98.878906 26.429688 C 99.644531 26.453125 100.246094 27.089844 100.222656 27.851562 C 100.203125 28.613281 99.566406 29.214844 98.804688 29.195312 C 98.625 29.1875 98.449219 29.148438 98.292969 29.082031 L 96.695312 33.113281 C 92.917969 34.015625 92.027344 32.902344 93.121094 29.847656 Z M 97.5625 28.328125 "/>
        <path d="M 17.421875 122.863281 L 17.421875 29.828125 C 24.757812 25.582031 33.269531 23.148438 42.351562 23.148438 C 51.429688 23.148438 59.941406 25.582031 67.277344 29.828125 L 67.277344 48.078125 L 85.527344 48.078125 C 89.773438 55.414062 92.207031 63.929688 92.207031 73.007812 C 92.207031 82.085938 89.773438 90.597656 85.527344 97.933594 L 42.351562 97.933594 L 42.351562 122.863281 Z M 42.351562 48.589844 L 42.351562 97.421875 C 55.824219 97.421875 66.765625 86.480469 66.765625 73.007812 C 66.765625 59.53125 55.824219 48.589844 42.351562 48.589844 Z M 42.351562 48.589844 "/>
    </g>
</svg>
