<?xml version="1.0" encoding="UTF-8" standalone="no"?><svg viewBox="0 0 128 128" version="1.1" xmlns="http://www.w3.org/2000/svg"><g id="logo" fill="#ffffff" transform="translate(1.7885725,-1.7885736)"><path d="M 90.578125,41.285156 88.179688,43.683594 72.03125,27.535156 74.429688,25.136719 Z m -7.933594,-29.875 C 82.207031,10.734375 82.28125,9.820312 82.875,9.226562 c 0.683594,-0.683593 1.789062,-0.683593 2.472656,0 0.679688,0.679688 0.679688,1.789063 0,2.46875 -0.449218,0.449219 -1.078125,0.601563 -1.648437,0.464844 -4.425781,14.726563 -3.742188,14.007813 11.527343,7.308594 -0.398437,-0.820312 -0.257812,-1.84375 0.425782,-2.523438 0.859375,-0.863281 2.257812,-0.863281 3.121094,0 0.859374,0.859376 0.859374,2.257813 0,3.117188 -0.683594,0.683594 -1.703126,0.824219 -2.527344,0.425781 -6.699219,15.269531 -7.417969,15.953125 7.312496,11.527344 -0.14062,-0.570313 0.0156,-1.199219 0.46094,-1.648437 0.67969,-0.679688 1.78906,-0.679688 2.46875,0 0.6836,0.683593 0.6836,1.789062 0,2.472656 -0.59375,0.59375 -1.50781,0.667968 -2.18359,0.230468 -2.78516,2.054688 -10.703128,6.644532 -13.132815,7.621094 L 75.027344,24.542969 C 76,22.113281 80.59375,14.195312 82.644531,11.410156 Z M 86.398438,25.8125 c -0.367188,-0.367188 -0.964844,-0.367188 -1.332032,0 -0.367187,0.367188 -0.367187,0.960938 0,1.328125 0.367188,0.367187 0.964844,0.367187 1.332032,0 0.367187,-0.367187 0.367187,-0.960937 0,-1.328125 z m 3.507812,3.507812 c -0.367188,-0.367187 -0.964844,-0.367187 -1.332031,0 -0.367188,0.367188 -0.367188,0.960938 0,1.328126 0.367187,0.367187 0.964843,0.367187 1.332031,0 0.363281,-0.367188 0.363281,-0.960938 0,-1.328126 z m 0.648438,-4.160156 c -0.367188,-0.363281 -0.964844,-0.363281 -1.332032,0 -0.367187,0.367188 -0.367187,0.964844 0,1.332032 0.367188,0.367187 0.964844,0.367187 1.332032,0 0.367187,-0.367188 0.367187,-0.964844 0,-1.332032 z m -3.167969,-7.003906 -1.515625,4.4375 C 82.8125,23.6875 81.699219,22.796875 82.601562,19.023438 l 4.03125,-1.601563 c -0.06641,-0.15625 -0.105468,-0.328125 -0.113281,-0.511719 -0.01953,-0.761718 0.582031,-1.398437 1.34375,-1.417968 0.765625,-0.02344 1.398438,0.582031 1.421875,1.34375 0.01953,0.761718 -0.582031,1.398437 -1.34375,1.417968 -0.195312,0.0039 -0.382812,-0.03125 -0.554687,-0.09766 z M 97.5625,28.328125 c -0.07031,-0.167969 -0.105469,-0.355469 -0.101562,-0.554687 0.01953,-0.761719 0.65625,-1.363282 1.417968,-1.34375 0.765625,0.02344 1.367184,0.660156 1.343754,1.421874 -0.0195,0.761719 -0.656254,1.363282 -1.417972,1.34375 -0.179688,-0.0078 -0.355469,-0.04687 -0.511719,-0.113281 l -1.597657,4.03125 c -3.777343,0.902344 -4.667968,-0.210937 -3.574218,-3.265625 z m 0,0"/><path d="M 17.421875,122.86328 V 29.828125 c 7.335937,-4.246094 15.847656,-6.679687 24.929687,-6.679687 9.078126,0 17.589844,2.433593 24.925782,6.679687 v 18.25 h 18.25 c 4.246094,7.335937 6.679687,15.851563 6.679687,24.929687 0,9.078126 -2.433593,17.589844 -6.679687,24.925782 H 42.351562 V 122.86328 Z M 42.351562,48.589844 v 48.832031 c 13.472657,0 24.414063,-10.941406 24.414063,-24.414063 0,-13.476562 -10.941406,-24.417968 -24.414063,-24.417968 z m 0,0"/></g></svg>
